<?xml version="1.0" encoding="UTF-8"?>
<svg width="512" height="160" viewBox="0 0 512 160" xmlns="http://www.w3.org/2000/svg" role="img" aria-label="Cartoon gecko">
  <defs>
    <linearGradient id="gBody" x1="0%" y1="0%" x2="100%" y2="0%">
      <stop offset="0%" stop-color="#1dd1a1"/>
      <stop offset="100%" stop-color="#10ac84"/>
    </linearGradient>
    <linearGradient id="gTail" x1="0%" y1="0%" x2="100%" y2="0%">
      <stop offset="0%" stop-color="#ffd166"/>
      <stop offset="100%" stop-color="#fcbf49"/>
    </linearGradient>
    <filter id="shadow" x="-20%" y="-20%" width="140%" height="140%">
      <feDropShadow dx="0" dy="2" stdDeviation="2" flood-color="#000" flood-opacity="0.25"/>
    </filter>
  </defs>

  <path d="M 340 80 C 390 50, 470 50, 495 78 C 505 90, 505 100, 495 110 C 470 138, 390 120, 345 95"
        fill="none" stroke="url(#gTail)" stroke-width="26" stroke-linecap="round" filter="url(#shadow)"/>

  <rect x="60" y="56" rx="22" ry="22" width="300" height="48" fill="url(#gBody)" filter="url(#shadow)"/>

  <g filter="url(#shadow)">
    <circle cx="60" cy="80" r="30" fill="#1dd1a1"/>
    <circle cx="52" cy="74" r="7" fill="#2d3436"/>
    <circle cx="70" cy="74" r="7" fill="#2d3436"/>
    <circle cx="50" cy="72" r="2.5" fill="#fff"/>
    <circle cx="68" cy="72" r="2.5" fill="#fff"/>
  </g>

  <g fill="#10ac84" filter="url(#shadow)">
    <ellipse cx="120" cy="106" rx="12" ry="6"/>
    <ellipse cx="180" cy="106" rx="12" ry="6"/>
    <ellipse cx="240" cy="106" rx="12" ry="6"/>
    <ellipse cx="300" cy="106" rx="12" ry="6"/>
  </g>

  <g fill="#0e8f6f" opacity="0.5">
    <circle cx="140" cy="76" r="6"/>
    <circle cx="200" cy="86" r="5"/>
    <circle cx="260" cy="74" r="6"/>
    <circle cx="320" cy="84" r="5"/>
  </g>

  <path d="M 48 90 Q 60 98 72 90" fill="none" stroke="#2d3436" stroke-width="3" stroke-linecap="round"/>
</svg>

