<svg xmlns="http://www.w3.org/2000/svg" width="240" height="160" viewBox="0 0 240 160" fill="none">
  <defs>
    <linearGradient id="mt-bg" x1="0" y1="0" x2="240" y2="160" gradientUnits="userSpaceOnUse">
      <stop offset="0" stop-color="#E0F2FE"/>
      <stop offset="1" stop-color="#DBEAFE"/>
    </linearGradient>
  </defs>
  <rect width="240" height="160" rx="12" fill="url(#mt-bg)"/>

  <!-- Sky lane -->
  <rect x="20" y="32" width="200" height="52" rx="20" fill="#0F172A" opacity="0.12"/>

  <!-- Bird / plane -->
  <g transform="translate(70 50)">
    <path d="M0 16 C 12 2 40 0 60 6 C 50 14 44 22 36 26 C 20 28 8 24 0 16 Z" fill="#38BDF8"/>
    <path d="M30 10 L52 2 L46 18 Z" fill="#0EA5E9"/>
    <circle cx="18" cy="14" r="5" fill="#F9FAFB"/>
    <circle cx="19.5" cy="14" r="2.5" fill="#0F172A"/>
  </g>

  <!-- Flying word -->
  <rect x="110" y="40" width="76" height="26" rx="8" fill="#0F172A"/>
  <text x="118" y="58" font-size="14" font-family="Consolas, monospace" fill="#E5F3FF">vector&lt;int&gt;</text>

  <!-- Keyboard keys -->
  <g transform="translate(32 96)">
    <rect x="0" y="0" width="176" height="40" rx="8" fill="#0F172A" opacity="0.06"/>
    <rect x="8" y="8" width="28" height="20" rx="4" fill="#FFFFFF"/>
    <rect x="40" y="8" width="28" height="20" rx="4" fill="#FFFFFF"/>
    <rect x="72" y="8" width="28" height="20" rx="4" fill="#0EA5E9"/>
    <rect x="104" y="8" width="28" height="20" rx="4" fill="#FFFFFF"/>
    <rect x="136" y="8" width="28" height="20" rx="4" fill="#FFFFFF"/>

    <text x="16" y="22" font-size="10" font-family="Consolas, monospace" fill="#0F172A">i</text>
    <text x="48" y="22" font-size="10" font-family="Consolas, monospace" fill="#0F172A">f</text>
    <text x="80" y="22" font-size="10" font-family="Consolas, monospace" fill="#F9FAFB">for</text>
    <text x="112" y="22" font-size="10" font-family="Consolas, monospace" fill="#0F172A">;</text>
    <text x="142" y="22" font-size="10" font-family="Consolas, monospace" fill="#0F172A">{ }</text>
  </g>

  <text x="18" y="26" font-size="14" font-family="Arial, Helvetica, sans-serif" fill="#1D4ED8">
    C++ SWÞL­Ã
  </text>
</svg>

