<svg xmlns="http://www.w3.org/2000/svg" width="240" height="160" viewBox="0 0 240 160" fill="none">
  <defs>
    <linearGradient id="bg2" x1="0" y1="0" x2="240" y2="160" gradientUnits="userSpaceOnUse">
      <stop offset="0" stop-color="#FFF7ED"/>
      <stop offset="1" stop-color="#FEF3C7"/>
    </linearGradient>
  </defs>
  <rect width="240" height="160" rx="12" fill="url(#bg2)"/>
  <!-- Kitchen counter -->
  <rect x="20" y="108" width="200" height="20" rx="6" fill="#9CA3AF"/>
  <!-- Pot -->
  <ellipse cx="84" cy="108" rx="36" ry="12" fill="#6B7280"/>
  <rect x="52" y="68" width="64" height="42" rx="8" fill="#94A3B8"/>
  <rect x="64" y="60" width="40" height="10" rx="4" fill="#CBD5E1"/>
  <rect x="36" y="84" width="10" height="20" rx="3" fill="#6B7280"/>
  <rect x="122" y="84" width="10" height="20" rx="3" fill="#6B7280"/>
  <!-- Ticket with modulo -->
  <rect x="140" y="40" width="76" height="54" rx="8" fill="#FFFFFF" stroke="#F59E0B" stroke-width="3"/>
  <text x="148" y="64" font-size="16" font-weight="700" font-family="Arial, Helvetica, sans-serif" fill="#111827">23 % 5</text>
  <text x="148" y="84" font-size="14" font-family="Arial, Helvetica, sans-serif" fill="#374151">= 3</text>
  <!-- Utensils -->
  <rect x="30" y="30" width="6" height="42" rx="3" fill="#EF4444"/>
  <rect x="42" y="30" width="6" height="42" rx="3" fill="#10B981"/>
  <rect x="54" y="30" width="6" height="42" rx="3" fill="#3B82F6"/>
  <text x="16" y="24" font-size="14" font-family="Arial, Helvetica, sans-serif" fill="#7C2D12">厨房大作战 · 余数</text>
</svg>


