<svg xmlns="http://www.w3.org/2000/svg" width="240" height="160" viewBox="0 0 240 160" fill="none">
  <defs>
    <linearGradient id="mt-bg" x1="0" y1="0" x2="240" y2="160" gradientUnits="userSpaceOnUse">
      <stop offset="0" stop-color="#E0F2FE"/>
      <stop offset="1" stop-color="#DBEAFE"/>
    </linearGradient>
  </defs>
  <rect width="240" height="160" rx="12" fill="url(#mt-bg)"/>

  <!-- Sky lane -->
  <rect x="20" y="32" width="200" height="52" rx="20" fill="#0F172A" opacity="0.12"/>

  <!-- Green dragon -->
  <g transform="translate(70 50)">
    <!-- body -->
    <path d="M0 20 C 8 8 30 4 50 8 C 64 12 72 20 78 26 C 64 28 48 30 30 30 C 16 30 6 26 0 20 Z"
          fill="#22C55E"/>
    <!-- belly -->
    <path d="M4 22 C 14 26 26 28 38 28 C 30 30 22 32 12 30 Z"
          fill="#BBF7D0" opacity="0.9"/>
    <!-- head -->
    <rect x="-4" y="8" width="16" height="16" rx="4" fill="#22C55E"/>
    <!-- snout -->
    <rect x="10" y="12" width="8" height="8" rx="2" fill="#16A34A"/>
    <!-- eye -->
    <circle cx="2" cy="14" r="3.2" fill="#F9FAFB"/>
    <circle cx="3" cy="14" r="1.6" fill="#022C22"/>
    <!-- horn -->
    <polygon points="0,8 4,2 6,8" fill="#A7F3D0"/>
    <!-- wing -->
    <path d="M28 10 C 34 2 46 0 54 4 C 48 8 44 12 42 18 C 36 16 32 14 28 10 Z"
          fill="#4ADE80"/>
    <!-- tail -->
    <path d="M60 24 C 70 26 78 30 86 36" stroke="#16A34A" stroke-width="3" fill="none"
          stroke-linecap="round"/>
    <polygon points="84,34 92,38 84,40" fill="#16A34A"/>
  </g>

  <!-- Keyboard keys -->
  <g transform="translate(32 96)">
    <rect x="0" y="0" width="176" height="40" rx="8" fill="#0F172A" opacity="0.06"/>
    <rect x="8" y="8" width="28" height="20" rx="4" fill="#FFFFFF"/>
    <rect x="40" y="8" width="28" height="20" rx="4" fill="#FFFFFF"/>
    <rect x="72" y="8" width="28" height="20" rx="4" fill="#0EA5E9"/>
    <rect x="104" y="8" width="28" height="20" rx="4" fill="#FFFFFF"/>
    <rect x="136" y="8" width="28" height="20" rx="4" fill="#FFFFFF"/>

    <text x="16" y="22" font-size="10" font-family="Consolas, monospace" fill="#0F172A">i</text>
    <text x="48" y="22" font-size="10" font-family="Consolas, monospace" fill="#0F172A">f</text>
    <text x="80" y="22" font-size="10" font-family="Consolas, monospace" fill="#F9FAFB">for</text>
    <text x="112" y="22" font-size="10" font-family="Consolas, monospace" fill="#0F172A">;</text>
    <text x="142" y="22" font-size="10" font-family="Consolas, monospace" fill="#0F172A">{ }</text>
  </g>

  <text x="18" y="26" font-size="14" font-family="Arial, Helvetica, sans-serif" fill="#1D4ED8">
    C++ SWÞL­Ã
  </text>
</svg>

