<svg width="128" height="96" viewBox="0 0 128 96" xmlns="http://www.w3.org/2000/svg">
  <defs>
    <linearGradient id="bg" x1="0" y1="0" x2="1" y2="1">
      <stop offset="0" stop-color="#0f172a"/>
      <stop offset="1" stop-color="#1e293b"/>
    </linearGradient>
    <radialGradient id="apple-red" cx="38%" cy="32%" r="70%">
      <stop offset="0" stop-color="#fb7185"/>
      <stop offset="0.55" stop-color="#ef4444"/>
      <stop offset="1" stop-color="#b91c1c"/>
    </radialGradient>
    <radialGradient id="shine" cx="30%" cy="24%" r="30%">
      <stop offset="0" stop-color="#ffffff" stop-opacity="0.75"/>
      <stop offset="1" stop-color="#ffffff" stop-opacity="0"/>
    </radialGradient>
  </defs>

  <rect width="128" height="96" rx="10" fill="url(#bg)"/>

  <!-- big apple -->
  <g transform="translate(64,52) scale(0.82)">
    <ellipse cx="0" cy="30" rx="26" ry="6" fill="rgba(0,0,0,0.30)"/>
    <path d="M0 -10
             C-8 -20 -24 -18 -31 -5
             C-39 9 -31 32 -16 40
             C-8 44 -4 42 0 39
             C4 42 8 44 16 40
             C31 32 39 9 31 -5
             C24 -18 8 -20 0 -10Z"
          fill="url(#apple-red)" stroke="#7f1d1d" stroke-width="2"/>
    <ellipse cx="-9" cy="-1" rx="7" ry="10" fill="url(#shine)"/>
    <path d="M1 -25 C3 -34 10 -39 20 -38 C14 -32 10 -26 2 -21Z"
          fill="#22c55e" stroke="#166534" stroke-width="1.5"/>
    <rect x="-1.2" y="-27" width="2.4" height="12" rx="1.2" fill="#854d0e"/>
  </g>
</svg>
