<svg width="128" height="96" viewBox="0 0 128 96" xmlns="http://www.w3.org/2000/svg">
  <defs>
    <linearGradient id="bg" x1="0" y1="0" x2="0" y2="1">
      <stop offset="0" stop-color="#0a0e14"/>
      <stop offset="1" stop-color="#111a10"/>
    </linearGradient>
    <linearGradient id="belt" x1="0" y1="0" x2="1" y2="0">
      <stop offset="0" stop-color="#1a2235"/>
      <stop offset="1" stop-color="#232d42"/>
    </linearGradient>
  </defs>

  <rect width="128" height="96" fill="url(#bg)"/>
  <rect x="0" y="70" width="128" height="26" fill="#1c2333"/>
  <rect x="6" y="62" width="116" height="10" rx="2" fill="url(#belt)" stroke="#2a3548"/>

  <g opacity="0.45" fill="#232d42">
    <rect x="12" y="64" width="18" height="6"/>
    <rect x="38" y="64" width="18" height="6"/>
    <rect x="64" y="64" width="18" height="6"/>
    <rect x="90" y="64" width="18" height="6"/>
  </g>

  <!-- robot helper: blocky style from game canvas -->
  <g transform="translate(20,28)">
    <ellipse cx="10" cy="36" rx="11" ry="4" fill="rgba(0,0,0,0.35)"/>
    <rect x="-1" y="2" width="22" height="18" fill="#1c2333"/>
    <rect x="0" y="3" width="20" height="16" fill="#4f9eff"/>
    <rect x="1" y="-12" width="18" height="12" fill="#1c2333"/>
    <rect x="2" y="-11" width="16" height="10" fill="#4f9eff"/>
    <rect x="5" y="-8" width="4" height="4" fill="#0a0e14"/>
    <rect x="11" y="-8" width="4" height="4" fill="#0a0e14"/>
    <rect x="6" y="-7" width="2" height="2" fill="#fff"/>
    <rect x="12" y="-7" width="2" height="2" fill="#fff"/>
    <rect x="7" y="-3" width="6" height="2" fill="#0a0e14"/>
    <rect x="9" y="-17" width="2" height="5" fill="#4f9eff"/>
    <circle cx="10" cy="-18" r="2" fill="#4f9eff"/>
    <rect x="2" y="20" width="6" height="8" fill="#4f9eff"/>
    <rect x="12" y="20" width="6" height="8" fill="#4f9eff"/>
    <rect x="2" y="5" width="16" height="8" fill="rgba(0,0,0,0.45)"/>
    <text x="10" y="11" text-anchor="middle" font-family="Consolas,monospace" font-size="7" fill="#fff">1</text>
  </g>

  <g transform="translate(52,28)">
    <ellipse cx="10" cy="36" rx="11" ry="4" fill="rgba(0,0,0,0.35)"/>
    <rect x="-1" y="2" width="22" height="18" fill="#1c2333"/>
    <rect x="0" y="3" width="20" height="16" fill="#22c55e"/>
    <rect x="1" y="-12" width="18" height="12" fill="#1c2333"/>
    <rect x="2" y="-11" width="16" height="10" fill="#22c55e"/>
    <rect x="5" y="-8" width="4" height="4" fill="#0a0e14"/>
    <rect x="11" y="-8" width="4" height="4" fill="#0a0e14"/>
    <rect x="6" y="-7" width="2" height="2" fill="#fff"/>
    <rect x="12" y="-7" width="2" height="2" fill="#fff"/>
    <rect x="7" y="-3" width="6" height="2" fill="#0a0e14"/>
    <rect x="9" y="-17" width="2" height="5" fill="#22c55e"/>
    <circle cx="10" cy="-18" r="2" fill="#22c55e"/>
    <rect x="2" y="20" width="6" height="8" fill="#22c55e"/>
    <rect x="12" y="20" width="6" height="8" fill="#22c55e"/>
    <rect x="2" y="5" width="16" height="8" fill="rgba(0,0,0,0.45)"/>
    <text x="10" y="11" text-anchor="middle" font-family="Consolas,monospace" font-size="7" fill="#fff">2</text>
  </g>

  <!-- upgraded robot -->
  <g transform="translate(84,25)">
    <ellipse cx="11" cy="39" rx="12" ry="4" fill="rgba(250,204,21,0.35)"/>
    <circle cx="11" cy="11" r="17" fill="rgba(250,204,21,0.22)"/>
    <rect x="-1" y="4" width="24" height="19" fill="#1c2333"/>
    <rect x="0" y="5" width="22" height="17" fill="#facc15"/>
    <rect x="1" y="-12" width="20" height="13" fill="#1c2333"/>
    <rect x="2" y="-11" width="18" height="11" fill="#facc15"/>
    <rect x="6" y="-8" width="4" height="4" fill="#0a0e14"/>
    <rect x="12" y="-8" width="4" height="4" fill="#0a0e14"/>
    <rect x="7" y="-7" width="2" height="2" fill="#facc15"/>
    <rect x="13" y="-7" width="2" height="2" fill="#facc15"/>
    <path d="M7 -2 Q11 2 15 -2" stroke="#0a0e14" stroke-width="1.2" fill="none"/>
    <rect x="10" y="-18" width="2" height="6" fill="#facc15"/>
    <circle cx="11" cy="-19" r="2.5" fill="#fff"/>
    <circle cx="11" cy="-19" r="1.2" fill="#facc15"/>
    <rect x="2" y="23" width="7" height="9" fill="#facc15"/>
    <rect x="13" y="23" width="7" height="9" fill="#facc15"/>
    <rect x="4" y="8" width="14" height="8" fill="rgba(0,0,0,0.45)"/>
    <text x="11" y="13.6" text-anchor="middle" font-family="Consolas,monospace" font-size="7" fill="#fff">3</text>
  </g>
</svg>

